<svg width="454" height="365" viewBox="0 0 454 365" fill="none" xmlns="http://www.w3.org/2000/svg">
<path d="M147.608 13.3286C177.375 15.2499 209.581 34.8364 225.324 45.6865C237.988 34.3062 266.62 13.3286 305.608 13.3286C359.108 13.3287 372.108 36.0002 378.608 66.8286C385.108 97.657 372.108 128.829 372.108 128.829C372.108 128.829 406.322 130.757 421.108 144.329C442.559 164.016 444.766 190.935 433.608 217.829C423.207 242.901 378.608 260.329 378.608 260.329C378.608 260.329 377.063 305.836 359.108 325.329C339.655 346.449 317.686 355.342 289.608 349.329C268.367 344.78 257.442 334.478 244.108 317.329C235.048 305.675 229.495 286.288 226.608 273.408C223.721 286.288 218.169 305.675 209.108 317.329C195.775 334.478 184.85 344.78 163.608 349.329C135.531 355.342 113.562 346.449 94.1084 325.329C76.1535 305.836 74.6084 260.329 74.6084 260.329C74.6084 260.329 30.0101 242.901 19.6084 217.829C8.45119 190.935 10.6581 164.016 32.1084 144.329C46.8947 130.757 81.1084 128.829 81.1084 128.829C81.1084 128.829 68.1084 98.157 74.6084 66.8286C81.1084 35.5002 106.217 10.657 147.608 13.3286Z" fill="url(#paint0_linear_4_467)"/>
<path d="M147.608 13.3286L148.446 0.355613L147.608 13.3286ZM74.6084 66.8286L87.3373 69.4696L87.3373 69.4696L74.6084 66.8286ZM81.1084 128.829L81.84 141.808L100.288 140.768L93.0776 123.755L81.1084 128.829ZM32.1084 144.329L23.3179 134.751L23.3179 134.751L32.1084 144.329ZM19.6084 217.829L7.60072 222.81L7.60072 222.81L19.6084 217.829ZM74.6084 260.329L87.6009 259.887L87.3105 251.335L79.34 248.22L74.6084 260.329ZM94.1084 325.329L84.5465 334.136L84.5465 334.136L94.1084 325.329ZM163.608 349.329L160.886 336.617L160.886 336.617L163.608 349.329ZM209.108 317.329L198.845 309.349L198.845 309.349L209.108 317.329ZM229.108 260.329L241.976 262.179L244.18 246.859L228.709 247.335L229.108 260.329ZM203.608 254.829L197.872 266.494L203.608 254.829ZM193.837 229.877C189.075 224.504 180.859 224.009 175.486 228.771C170.113 233.533 169.617 241.749 174.379 247.123L193.837 229.877ZM305.608 13.3286L305.608 26.3286L305.608 13.3286ZM372.108 128.829L360.11 123.825L353.041 140.774L371.377 141.808L372.108 128.829ZM421.108 144.329L429.899 134.751L429.899 134.751L421.108 144.329ZM433.608 217.829L445.616 222.81L445.616 222.81L433.608 217.829ZM378.608 260.329L373.877 248.22L365.906 251.335L365.616 259.887L378.608 260.329ZM359.108 325.329L368.67 334.136L368.67 334.136L359.108 325.329ZM289.608 349.329L292.331 336.617L292.331 336.617L289.608 349.329ZM244.108 317.329L254.371 309.349L254.371 309.349L244.108 317.329ZM224.108 260.329L224.534 247.336L209.033 246.827L211.241 262.179L224.108 260.329ZM248.608 254.829L254.177 266.576L248.608 254.829ZM278.571 247.414C283.494 242.188 283.248 233.96 278.022 229.037C272.796 224.114 264.569 224.36 259.646 229.586L278.571 247.414ZM235.108 52.8286C243.222 42.6711 243.221 42.6706 243.22 42.6701C243.22 42.67 243.22 42.6695 243.219 42.6691C243.218 42.6684 243.217 42.6677 243.216 42.6669C243.214 42.6654 243.212 42.6637 243.21 42.6618C243.205 42.6579 243.199 42.6534 243.193 42.6482C243.18 42.6377 243.163 42.6245 243.143 42.6085C243.102 42.5764 243.048 42.5333 242.979 42.4795C242.843 42.3719 242.651 42.2215 242.405 42.0315C241.915 41.6515 241.211 41.1125 240.312 40.4394C238.515 39.094 235.93 37.2083 232.701 34.9826L225.324 45.6865L217.946 56.3904C220.865 58.402 223.173 60.0873 224.731 61.2536C225.509 61.8364 226.099 62.2885 226.483 62.5856C226.674 62.7341 226.815 62.8438 226.901 62.9116C226.944 62.9455 226.973 62.9689 226.989 62.9815C226.997 62.9878 227.002 62.9913 227.003 62.9921C227.003 62.9925 227.003 62.9922 227.002 62.9912C227.001 62.9908 227 62.9901 226.999 62.9892C226.998 62.9888 226.998 62.9884 226.997 62.9878C226.997 62.9876 226.996 62.9872 226.996 62.987C226.996 62.9866 226.995 62.9862 235.108 52.8286ZM225.324 45.6865L232.701 34.9826C224.478 29.3146 211.862 21.2967 197.28 14.4055C182.831 7.57756 165.643 1.46557 148.446 0.355613L147.608 13.3286L146.771 26.3016C159.341 27.1129 173.14 31.7548 186.171 37.9129C199.069 44.0078 210.428 51.2082 217.946 56.3904L225.324 45.6865ZM147.608 13.3286L148.446 0.355613C124.856 -1.16698 104.955 5.15751 89.912 17.1701C74.9798 29.094 65.6622 45.9557 61.8795 64.1876L74.6084 66.8286L87.3373 69.4696C90.0545 56.3731 96.5411 45.149 106.136 37.4872C115.62 29.9139 128.969 25.1526 146.771 26.3016L147.608 13.3286ZM74.6084 66.8286L61.8795 64.1876C58.1342 82.2388 60.0546 99.6843 62.6994 112.254C64.0366 118.608 65.5983 123.9 66.8409 127.643C67.4635 129.518 68.0099 131.016 68.414 132.077C68.6161 132.608 68.783 133.03 68.9065 133.336C68.9683 133.49 69.0192 133.614 69.0583 133.708C69.0778 133.756 69.0944 133.795 69.1079 133.828C69.1147 133.844 69.1207 133.858 69.1259 133.87C69.1285 133.877 69.1309 133.882 69.1331 133.888C69.1342 133.89 69.1357 133.894 69.1362 133.895C69.1377 133.898 69.1391 133.902 81.1084 128.829C93.0776 123.755 93.0789 123.759 93.0802 123.762C93.0805 123.762 93.0818 123.765 93.0825 123.767C93.0839 123.77 93.0851 123.773 93.0861 123.776C93.0882 123.78 93.0895 123.784 93.09 123.785C93.0911 123.787 93.0891 123.783 93.0843 123.771C93.0745 123.747 93.0533 123.696 93.0214 123.617C92.9576 123.458 92.8516 123.191 92.7109 122.822C92.4295 122.083 92.011 120.94 91.5165 119.45C90.5247 116.463 89.2426 112.129 88.1423 106.9C85.9121 96.3013 84.5825 82.7469 87.3373 69.4696L74.6084 66.8286ZM81.1084 128.829C80.3767 115.849 80.3742 115.849 80.3716 115.85C80.3705 115.85 80.3678 115.85 80.3657 115.85C80.3615 115.85 80.3568 115.85 80.3515 115.851C80.341 115.851 80.3284 115.852 80.3138 115.853C80.2844 115.855 80.2467 115.857 80.201 115.86C80.1095 115.865 79.9855 115.873 79.8307 115.884C79.5213 115.905 79.0882 115.937 78.5448 115.982C77.4589 116.071 75.9267 116.212 74.0558 116.426C70.33 116.852 65.1791 117.574 59.4883 118.765C48.8319 120.997 33.4988 125.407 23.3179 134.751L32.1084 144.329L40.8988 153.906C45.5043 149.679 54.6712 146.338 64.8182 144.213C69.5291 143.227 73.8557 142.618 77.0071 142.258C78.5747 142.079 79.831 141.964 80.674 141.894C81.0949 141.86 81.4113 141.837 81.6103 141.823C81.7097 141.816 81.7797 141.812 81.8185 141.809C81.838 141.808 81.8496 141.807 81.8533 141.807C81.8551 141.807 81.8549 141.807 81.8527 141.807C81.8516 141.807 81.85 141.807 81.8479 141.808C81.8468 141.808 81.8449 141.808 81.8443 141.808C81.8422 141.808 81.84 141.808 81.1084 128.829ZM32.1084 144.329L23.3179 134.751C-3.22235 159.111 -5.03646 192.35 7.60072 222.81L19.6084 217.829L31.616 212.847C21.9389 189.521 24.5384 168.922 40.8988 153.906L32.1084 144.329ZM19.6084 217.829L7.60072 222.81C14.5463 239.552 31.6679 252.015 44.3067 259.62C51.0232 263.661 57.3477 266.834 61.983 268.996C64.3098 270.081 66.2341 270.922 67.5984 271.5C68.2811 271.789 68.8251 272.014 69.211 272.17C69.404 272.249 69.5576 272.31 69.6693 272.355C69.7252 272.377 69.7706 272.395 69.8053 272.409C69.8226 272.416 69.8373 272.421 69.8492 272.426C69.8551 272.428 69.8604 272.431 69.865 272.432C69.8673 272.433 69.8703 272.434 69.8714 272.435C69.8742 272.436 69.8768 272.437 74.6084 260.329C79.34 248.22 79.3422 248.221 79.3443 248.222C79.3448 248.222 79.3467 248.223 79.3476 248.223C79.3495 248.224 79.3507 248.224 79.3513 248.225C79.3524 248.225 79.3509 248.224 79.3467 248.223C79.3385 248.22 79.3198 248.212 79.2909 248.201C79.2333 248.178 79.1351 248.138 78.9989 248.083C78.7264 247.972 78.3022 247.798 77.7451 247.562C76.6297 247.089 74.9885 246.372 72.9717 245.432C68.9197 243.542 63.4446 240.791 57.7113 237.342C45.4506 229.964 35.0721 221.178 31.616 212.847L19.6084 217.829ZM74.6084 260.329C61.6159 260.77 61.6159 260.772 61.616 260.775C61.6161 260.776 61.6162 260.779 61.6163 260.781C61.6164 260.786 61.6166 260.791 61.6168 260.797C61.6172 260.809 61.6178 260.824 61.6184 260.842C61.6197 260.877 61.6215 260.923 61.6238 260.98C61.6283 261.093 61.6349 261.25 61.6441 261.448C61.6624 261.842 61.6909 262.4 61.7334 263.104C61.8182 264.511 61.9591 266.507 62.1863 268.948C62.6391 273.814 63.443 280.537 64.8548 287.951C67.5333 302.016 72.9025 321.495 84.5465 334.136L94.1084 325.329L103.67 316.521C97.3594 309.67 92.9786 296.649 90.3958 283.087C89.177 276.687 88.4724 270.815 88.0744 266.539C87.8762 264.41 87.7561 262.697 87.6863 261.54C87.6514 260.961 87.6292 260.523 87.6161 260.241C87.6096 260.101 87.6053 259.999 87.6029 259.94C87.6017 259.91 87.601 259.89 87.6007 259.881C87.6005 259.877 87.6005 259.875 87.6005 259.876C87.6005 259.877 87.6006 259.878 87.6006 259.88C87.6007 259.881 87.6007 259.883 87.6007 259.883C87.6008 259.885 87.6009 259.887 74.6084 260.329ZM94.1084 325.329L84.5465 334.136C95.2977 345.808 107.336 354.742 121.225 359.737C135.218 364.769 150.224 365.49 166.331 362.04L163.608 349.329L160.886 336.617C148.915 339.181 138.899 338.462 130.024 335.271C121.046 332.042 112.373 325.969 103.67 316.521L94.1084 325.329ZM163.608 349.329L166.331 362.04C178.626 359.407 188.435 354.968 197.122 348.455C205.589 342.107 212.506 334.139 219.371 325.308L209.108 317.329L198.845 309.349C192.377 317.669 187.164 323.425 181.526 327.652C176.107 331.715 169.833 334.701 160.886 336.617L163.608 349.329ZM209.108 317.329L219.371 325.308C230.4 311.123 236.415 289.093 239.294 276.251L226.608 273.408L213.923 270.564C211.028 283.482 205.938 300.227 198.845 309.349L209.108 317.329ZM226.608 273.408L239.294 276.251C240.207 272.178 240.869 268.714 241.306 266.25C241.525 265.016 241.688 264.028 241.799 263.334C241.854 262.987 241.896 262.714 241.925 262.519C241.94 262.422 241.952 262.345 241.96 262.288C241.964 262.259 241.968 262.236 241.97 262.218C241.972 262.209 241.973 262.201 241.974 262.195C241.974 262.192 241.975 262.189 241.975 262.186C241.975 262.185 241.975 262.184 241.975 262.183C241.976 262.182 241.976 262.181 241.976 262.181C241.976 262.18 241.976 262.179 229.108 260.329C216.241 258.478 216.241 258.477 216.241 258.476C216.241 258.476 216.241 258.475 216.241 258.475C216.241 258.474 216.241 258.474 216.241 258.473C216.242 258.472 216.242 258.471 216.242 258.47C216.242 258.469 216.242 258.469 216.242 258.47C216.241 258.473 216.24 258.481 216.238 258.494C216.235 258.519 216.228 258.565 216.218 258.63C216.198 258.76 216.167 258.966 216.122 259.243C216.034 259.799 215.896 260.636 215.706 261.709C215.324 263.858 214.737 266.934 213.923 270.564L226.608 273.408ZM229.108 260.329C228.709 247.335 228.71 247.335 228.71 247.335C228.71 247.335 228.711 247.335 228.711 247.335C228.712 247.335 228.713 247.335 228.714 247.335C228.715 247.335 228.717 247.334 228.718 247.334C228.721 247.334 228.724 247.334 228.726 247.334C228.731 247.334 228.735 247.334 228.738 247.334C228.743 247.334 228.746 247.334 228.745 247.334C228.743 247.334 228.726 247.334 228.697 247.335C228.638 247.336 228.527 247.337 228.368 247.338C228.05 247.339 227.546 247.337 226.896 247.319L226.532 260.313L226.169 273.308C227.124 273.335 227.908 273.34 228.476 273.338C228.761 273.337 228.993 273.334 229.166 273.33C229.253 273.329 229.325 273.327 229.382 273.326C229.411 273.325 229.436 273.324 229.457 273.324C229.467 273.324 229.477 273.323 229.485 273.323C229.489 273.323 229.493 273.323 229.497 273.323C229.499 273.323 229.501 273.323 229.503 273.323C229.503 273.323 229.504 273.323 229.505 273.323C229.506 273.322 229.506 273.322 229.506 273.322C229.507 273.322 229.508 273.322 229.108 260.329ZM226.532 260.313L226.896 247.319C223.12 247.213 215.375 246.128 209.345 243.163L203.608 254.829L197.872 266.494C208.362 271.653 220.136 273.14 226.169 273.308L226.532 260.313ZM203.608 254.829L209.345 243.163C206.727 241.875 203.025 238.936 199.419 235.547C197.753 233.982 196.324 232.528 195.316 231.469C194.814 230.943 194.424 230.522 194.169 230.243C194.041 230.104 193.948 230.001 193.892 229.938C193.863 229.907 193.845 229.886 193.835 229.875C193.831 229.87 193.829 229.868 193.829 229.868C193.829 229.868 193.83 229.869 193.831 229.871C193.832 229.871 193.833 229.872 193.834 229.874C193.834 229.874 193.835 229.875 193.835 229.875C193.836 229.876 193.837 229.877 184.108 238.5C174.379 247.123 174.38 247.124 174.382 247.125C174.382 247.125 174.383 247.127 174.384 247.128C174.386 247.129 174.387 247.131 174.389 247.134C174.393 247.138 174.398 247.143 174.403 247.149C174.414 247.161 174.427 247.176 174.443 247.194C174.474 247.229 174.516 247.275 174.567 247.332C174.67 247.447 174.813 247.605 174.992 247.801C175.351 248.192 175.858 248.738 176.488 249.401C177.743 250.719 179.519 252.525 181.613 254.494C185.529 258.173 191.577 263.399 197.872 266.494L203.608 254.829ZM218.108 52.8286C227.961 61.3094 227.96 61.3104 227.959 61.3114C227.959 61.3117 227.958 61.3127 227.958 61.3134C227.957 61.3146 227.956 61.3158 227.955 61.317C227.952 61.3194 227.951 61.3216 227.949 61.3236C227.945 61.3276 227.943 61.3309 227.94 61.3336C227.936 61.3389 227.933 61.3414 227.934 61.3413C227.934 61.341 227.943 61.3299 227.962 61.3084C228 61.2655 228.076 61.181 228.188 61.058C228.412 60.8118 228.782 60.4122 229.294 59.883C230.318 58.8235 231.904 57.2514 234.013 55.356L225.324 45.6865L216.635 36.017C214.03 38.3574 212.008 40.3564 210.603 41.809C209.9 42.5359 209.35 43.1275 208.958 43.5587C208.762 43.7743 208.605 43.95 208.488 44.0825C208.429 44.1488 208.38 44.2043 208.342 44.2486C208.322 44.2708 208.305 44.2902 208.291 44.3067C208.284 44.315 208.277 44.3226 208.272 44.3294C208.269 44.3328 208.266 44.3361 208.263 44.3392C208.262 44.3407 208.261 44.3422 208.259 44.3436C208.259 44.3443 208.258 44.3454 208.257 44.3457C208.257 44.3468 208.256 44.3478 218.108 52.8286ZM225.324 45.6865L234.013 55.356C245.667 44.8838 271.291 26.3286 305.608 26.3286L305.608 13.3286L305.608 0.328619C261.949 0.328592 230.31 23.7285 216.635 36.017L225.324 45.6865ZM305.608 13.3286L305.608 26.3286C330.726 26.3286 343.687 31.6712 351.114 38.2496C358.655 44.9293 362.799 54.8613 365.888 69.5106L378.608 66.8286L391.329 64.1466C387.917 47.9676 382.311 31.1495 368.353 18.7864C354.28 6.32192 333.991 0.328637 305.608 0.328619L305.608 13.3286ZM378.608 66.8286L365.888 69.5106C368.626 82.498 367.311 96.0272 365.072 106.726C363.969 111.996 362.683 116.386 361.686 119.423C361.189 120.936 360.768 122.102 360.484 122.858C360.343 123.236 360.235 123.51 360.17 123.674C360.138 123.756 360.116 123.81 360.105 123.836C360.1 123.848 360.098 123.854 360.099 123.852C360.099 123.851 360.1 123.849 360.102 123.844C360.103 123.842 360.104 123.839 360.105 123.836C360.106 123.834 360.107 123.831 360.108 123.831C360.109 123.828 360.11 123.825 372.108 128.829C384.107 133.832 384.108 133.829 384.109 133.826C384.11 133.825 384.111 133.821 384.113 133.819C384.115 133.814 384.117 133.808 384.119 133.802C384.125 133.79 384.13 133.776 384.137 133.76C384.15 133.728 384.166 133.688 384.186 133.641C384.224 133.546 384.274 133.422 384.335 133.268C384.458 132.96 384.623 132.535 384.824 132C385.226 130.931 385.77 129.42 386.39 127.53C387.628 123.759 389.186 118.429 390.52 112.052C393.156 99.4584 395.09 81.9876 391.329 64.1466L378.608 66.8286ZM372.108 128.829C371.377 141.808 371.374 141.808 371.372 141.808C371.372 141.808 371.37 141.808 371.369 141.808C371.367 141.807 371.365 141.807 371.364 141.807C371.362 141.807 371.362 141.807 371.363 141.807C371.367 141.807 371.379 141.808 371.398 141.809C371.437 141.812 371.507 141.816 371.606 141.823C371.805 141.837 372.122 141.86 372.543 141.894C373.386 141.964 374.642 142.079 376.21 142.258C379.361 142.618 383.688 143.227 388.399 144.213C398.546 146.338 407.712 149.679 412.318 153.906L421.108 144.329L429.899 134.751C419.718 125.407 404.385 120.997 393.728 118.765C388.038 117.574 382.887 116.852 379.161 116.426C377.29 116.212 375.758 116.071 374.672 115.982C374.129 115.937 373.695 115.905 373.386 115.884C373.231 115.873 373.107 115.865 373.016 115.86C372.97 115.857 372.932 115.855 372.903 115.853C372.888 115.852 372.876 115.851 372.865 115.851C372.86 115.85 372.855 115.85 372.851 115.85C372.849 115.85 372.846 115.85 372.845 115.85C372.843 115.849 372.84 115.849 372.108 128.829ZM421.108 144.329L412.318 153.906C428.678 168.922 431.278 189.521 421.601 212.847L433.608 217.829L445.616 222.81C458.253 192.35 456.439 159.111 429.899 134.751L421.108 144.329ZM433.608 217.829L421.601 212.847C418.145 221.178 407.766 229.964 395.505 237.342C389.772 240.791 384.297 243.542 380.245 245.432C378.228 246.372 376.587 247.089 375.472 247.562C374.915 247.798 374.49 247.972 374.218 248.083C374.082 248.138 373.983 248.178 373.926 248.201C373.897 248.212 373.878 248.22 373.87 248.223C373.866 248.224 373.864 248.225 373.865 248.225C373.866 248.224 373.867 248.224 373.869 248.223C373.87 248.223 373.872 248.222 373.872 248.222C373.875 248.221 373.877 248.22 378.608 260.329C383.34 272.437 383.343 272.436 383.345 272.435C383.346 272.434 383.349 272.433 383.352 272.432C383.356 272.431 383.362 272.428 383.368 272.426C383.379 272.421 383.394 272.416 383.411 272.409C383.446 272.395 383.492 272.377 383.547 272.355C383.659 272.31 383.813 272.249 384.006 272.17C384.392 272.014 384.936 271.789 385.618 271.5C386.983 270.922 388.907 270.081 391.234 268.996C395.869 266.834 402.194 263.661 408.91 259.62C421.549 252.015 438.67 239.552 445.616 222.81L433.608 217.829ZM378.608 260.329C365.616 259.887 365.616 259.885 365.616 259.883C365.616 259.883 365.616 259.881 365.616 259.88C365.616 259.878 365.616 259.877 365.616 259.876C365.616 259.875 365.616 259.877 365.616 259.881C365.616 259.89 365.615 259.91 365.614 259.94C365.611 259.999 365.607 260.101 365.601 260.241C365.588 260.523 365.565 260.961 365.53 261.54C365.461 262.697 365.341 264.41 365.142 266.539C364.744 270.815 364.04 276.687 362.821 283.087C360.238 296.649 355.857 309.67 349.547 316.521L359.108 325.329L368.67 334.136C380.314 321.495 385.683 302.016 388.362 287.951C389.774 280.537 390.578 273.814 391.03 268.948C391.258 266.507 391.399 264.511 391.483 263.104C391.526 262.4 391.554 261.842 391.573 261.448C391.582 261.25 391.588 261.093 391.593 260.98C391.595 260.923 391.597 260.877 391.598 260.842C391.599 260.824 391.599 260.809 391.6 260.797C391.6 260.791 391.6 260.786 391.6 260.781C391.601 260.779 391.601 260.776 391.601 260.775C391.601 260.772 391.601 260.77 378.608 260.329ZM359.108 325.329L349.547 316.521C340.844 325.969 332.171 332.042 323.193 335.271C314.318 338.462 304.302 339.181 292.331 336.617L289.608 349.329L286.886 362.04C302.993 365.49 317.999 364.769 331.991 359.737C345.881 354.742 357.919 345.808 368.67 334.136L359.108 325.329ZM289.608 349.329L292.331 336.617C283.384 334.701 277.11 331.715 271.691 327.652C266.052 323.425 260.84 317.669 254.371 309.349L244.108 317.329L233.845 325.308C240.711 334.139 247.627 342.107 256.095 348.455C264.782 354.968 274.591 359.407 286.886 362.04L289.608 349.329ZM244.108 317.329L254.371 309.349C247.279 300.227 242.189 283.482 239.294 270.564L226.608 273.408L213.923 276.251C216.802 289.093 222.817 311.123 233.845 325.308L244.108 317.329ZM226.608 273.408L239.294 270.564C238.48 266.934 237.892 263.858 237.511 261.709C237.321 260.636 237.183 259.799 237.094 259.243C237.05 258.966 237.018 258.76 236.999 258.63C236.989 258.565 236.982 258.519 236.978 258.494C236.976 258.481 236.975 258.473 236.975 258.47C236.975 258.469 236.975 258.469 236.975 258.47C236.975 258.471 236.975 258.472 236.975 258.473C236.975 258.474 236.975 258.474 236.976 258.475C236.976 258.475 236.976 258.476 236.976 258.476C236.976 258.477 236.976 258.478 224.108 260.329C211.241 262.179 211.241 262.18 211.241 262.181C211.241 262.181 211.241 262.182 211.241 262.183C211.241 262.184 211.242 262.185 211.242 262.186C211.242 262.189 211.243 262.192 211.243 262.195C211.244 262.201 211.245 262.209 211.246 262.218C211.249 262.236 211.252 262.259 211.257 262.288C211.265 262.345 211.277 262.422 211.291 262.519C211.321 262.714 211.363 262.987 211.418 263.334C211.529 264.028 211.692 265.016 211.911 266.25C212.348 268.714 213.01 272.178 213.923 276.251L226.608 273.408ZM224.108 260.329C223.682 273.322 223.683 273.322 223.684 273.322C223.684 273.322 223.685 273.322 223.685 273.322C223.686 273.322 223.687 273.322 223.688 273.322C223.69 273.322 223.692 273.322 223.694 273.322C223.698 273.322 223.702 273.322 223.706 273.322C223.715 273.323 223.725 273.323 223.736 273.323C223.757 273.324 223.782 273.325 223.811 273.325C223.868 273.327 223.939 273.328 224.024 273.33C224.194 273.333 224.42 273.337 224.695 273.338C225.245 273.34 225.999 273.335 226.918 273.308L226.532 260.313L226.147 247.319C225.551 247.337 225.093 247.339 224.81 247.338C224.669 247.337 224.572 247.336 224.524 247.335C224.5 247.334 224.489 247.334 224.49 247.334C224.491 247.334 224.495 247.334 224.502 247.335C224.506 247.335 224.511 247.335 224.516 247.335C224.519 247.335 224.521 247.335 224.525 247.335C224.526 247.335 224.528 247.335 224.529 247.335C224.53 247.335 224.531 247.335 224.532 247.335C224.532 247.335 224.533 247.336 224.533 247.336C224.534 247.336 224.534 247.336 224.108 260.329ZM226.532 260.313L226.918 273.308C233.031 273.126 244.271 271.271 254.177 266.576L248.608 254.829L243.04 243.082C236.892 245.996 229.283 247.226 226.147 247.319L226.532 260.313ZM248.608 254.829L254.177 266.576C260.573 263.544 266.849 258.4 270.972 254.729C273.167 252.774 275.034 250.979 276.356 249.67C277.019 249.012 277.553 248.47 277.93 248.082C278.118 247.888 278.268 247.732 278.376 247.619C278.43 247.563 278.474 247.517 278.506 247.483C278.522 247.465 278.536 247.451 278.547 247.439C278.552 247.434 278.557 247.429 278.561 247.424C278.563 247.422 278.565 247.42 278.567 247.419C278.567 247.418 278.569 247.417 278.569 247.416C278.57 247.415 278.571 247.414 269.108 238.5C259.646 229.586 259.647 229.585 259.647 229.584C259.648 229.584 259.649 229.583 259.649 229.582C259.65 229.581 259.651 229.581 259.652 229.58C259.653 229.579 259.653 229.578 259.653 229.578C259.653 229.578 259.651 229.581 259.645 229.586C259.635 229.597 259.614 229.619 259.583 229.651C259.522 229.716 259.421 229.821 259.284 229.962C259.009 230.244 258.592 230.669 258.056 231.2C256.979 232.267 255.455 233.732 253.681 235.311C249.866 238.709 245.892 241.729 243.04 243.082L248.608 254.829ZM305.608 13.3286L306.446 26.3016C324.247 25.1526 337.597 29.9139 347.081 37.4872C356.676 45.149 363.162 56.3731 365.879 69.4696L378.608 66.8286L391.337 64.1876C387.555 45.9557 378.237 29.094 363.305 17.1701C348.261 5.15751 328.361 -1.16698 304.771 0.355613L305.608 13.3286Z" fill="white"/>
<defs>
<linearGradient id="paint0_linear_4_467" x1="31" y1="182" x2="426.5" y2="182" gradientUnits="userSpaceOnUse">
<stop stop-color="#F29F9F"/>
<stop offset="1" stop-color="#FF80B3"/>
</linearGradient>
</defs>
</svg>
