<svg width="212" height="58" viewBox="0 0 212 58" fill="none" xmlns="http://www.w3.org/2000/svg">
<path d="M128.853 57.9843C128.417 57.9843 128.179 57.9049 128.139 57.746C127.663 56.674 127.148 55.5026 126.592 54.2321C126.077 52.9218 125.521 51.5122 124.926 50.0034C123.696 47.0254 122.546 44.3453 121.475 41.9629C120.404 39.5408 119.154 37.0592 117.726 34.518C117.211 33.6445 116.139 33.2077 114.513 33.2077C114.354 33.2077 114.275 32.9496 114.275 32.4335C114.275 31.957 114.354 31.6393 114.513 31.4805C115.346 31.5202 116.278 31.5996 117.31 31.7188C118.341 31.7982 119.372 31.818 120.404 31.7783L126.354 31.4805C126.434 31.6393 126.453 31.9768 126.414 32.493C126.414 32.9695 126.354 33.2077 126.235 33.2077C124.252 33.2077 123.26 33.6643 123.26 34.5776C123.26 34.8555 123.915 36.3445 125.224 39.0445C126.533 41.7048 128.239 45.4173 130.341 50.182C131.729 46.2512 132.82 43.1541 133.614 40.8908C134.447 38.6276 134.863 37.3372 134.863 37.0195C134.863 36.821 134.744 36.4835 134.506 36.007C134.308 35.5305 134.05 34.9945 133.733 34.3989C133.415 33.9224 132.979 33.6048 132.424 33.446C131.868 33.2871 131.293 33.2077 130.698 33.2077C130.539 33.2077 130.46 32.9496 130.46 32.4335C130.46 31.957 130.539 31.6393 130.698 31.4805C131.531 31.5202 132.443 31.5798 133.435 31.6592C134.467 31.7386 135.478 31.7783 136.47 31.7783C137.739 31.7783 138.85 31.7386 139.802 31.6592C140.794 31.5798 141.627 31.5202 142.301 31.4805C142.381 31.7982 142.42 32.1357 142.42 32.493C142.42 32.8901 142.361 33.1283 142.242 33.2077C140.338 33.2077 139.386 33.982 139.386 35.5305C139.386 36.3246 141.567 41.2085 145.931 50.182C146.724 47.7203 147.498 45.457 148.252 43.3923C149.005 41.2879 149.62 39.5408 150.096 38.1511C150.572 36.7217 150.81 35.7688 150.81 35.2923C150.81 33.9026 149.501 33.2077 146.883 33.2077H146.645C146.486 33.2077 146.407 32.9496 146.407 32.4335C146.407 31.957 146.486 31.6393 146.645 31.4805C147.518 31.5202 148.47 31.5798 149.501 31.6592C150.533 31.7386 151.584 31.7783 152.655 31.7783C153.607 31.7783 154.519 31.7386 155.392 31.6592C156.304 31.5798 157.157 31.5202 157.951 31.4805C158.03 31.7982 158.07 32.096 158.07 32.3739C158.07 32.9298 157.971 33.2077 157.772 33.2077C157.257 33.2077 156.562 33.3864 155.69 33.7438C154.817 34.0614 154.242 34.5974 153.964 35.3518L146.169 56.674C145.891 57.5475 145.336 57.9843 144.503 57.9843C144.067 57.9843 143.829 57.9049 143.789 57.746L136.47 40.2357L130.46 56.674C130.341 56.9519 130.123 57.2299 129.805 57.5078C129.528 57.8255 129.21 57.9843 128.853 57.9843Z" fill="black"/>
<path d="M171.637 57.6865C169.455 57.6865 167.452 57.1107 165.627 55.9593C163.802 54.8078 162.334 53.2791 161.223 51.3732C160.152 49.4276 159.617 47.2637 159.617 44.8813C159.617 42.1019 160.133 39.6997 161.164 37.6747C162.195 35.6496 163.604 34.1011 165.389 33.029C167.174 31.9173 169.177 31.3614 171.399 31.3614C173.223 31.3614 174.83 31.7188 176.218 32.4335C177.607 33.1085 178.678 33.982 179.432 35.0541C180.146 36.1658 180.661 37.2974 180.979 38.4489C181.336 39.5607 181.514 40.6725 181.514 41.7842C181.514 42.5783 181.395 43.0747 181.157 43.2732C180.919 43.432 180.463 43.5114 179.789 43.5114H164.794C164.476 43.5114 164.318 43.6107 164.318 43.8092C164.318 45.4769 164.655 47.085 165.329 48.6335C166.004 50.1423 166.995 51.3931 168.304 52.3857C169.613 53.3784 171.22 53.8747 173.124 53.8747C174.79 53.8747 176.179 53.6365 177.289 53.16C178.44 52.6438 179.273 52.1872 179.789 51.7901L180.205 51.4923C180.443 51.4923 180.562 51.7504 180.562 52.2666C180.562 52.5446 180.443 52.9019 180.205 53.3387C179.412 54.4504 178.242 55.4629 176.694 56.3762C175.147 57.2497 173.461 57.6865 171.637 57.6865ZM164.794 41.01H176.397C176.595 41.01 176.694 40.8114 176.694 40.4144C176.694 39.5408 176.456 38.5879 175.98 37.5555C175.544 36.4835 174.87 35.5504 173.957 34.7563C173.045 33.9621 171.894 33.5651 170.506 33.5651C169.237 33.5651 168.146 34.0018 167.233 34.8754C166.321 35.7092 165.627 36.682 165.151 37.7938C164.675 38.8658 164.437 39.7989 164.437 40.593C164.437 40.871 164.556 41.01 164.794 41.01Z" fill="black"/>
<path d="M184.132 57.5078C183.974 57.349 183.894 57.0115 183.894 56.4953C183.894 56.0188 183.974 55.7806 184.132 55.7806C184.45 55.7806 184.886 55.721 185.441 55.6019C185.997 55.4828 186.513 55.324 186.989 55.1254C187.465 54.9269 187.722 54.7482 187.762 54.5894C187.921 54.0335 188.02 53.3982 188.06 52.6835C188.139 51.9688 188.179 51.2144 188.179 50.4203V24.6312C188.179 23.2812 188.06 22.0106 187.822 20.8195C187.663 20.1842 186.651 19.8665 184.787 19.8665H184.251C184.013 19.8665 183.894 19.6481 183.894 19.2114C183.894 18.5761 184.013 18.2584 184.251 18.2584C186.632 17.9805 188.397 17.6628 189.547 17.3055C190.698 16.9481 191.491 16.6305 191.927 16.3525L192.522 15.9952H192.641C192.8 15.9952 192.959 16.1143 193.117 16.3525C193.276 16.5511 193.375 16.7496 193.415 16.9481C192.979 18.2584 192.76 19.9856 192.76 22.1297V49.2887C192.76 50.4401 192.8 51.4526 192.879 52.3262C192.959 53.1997 193.078 53.9541 193.237 54.5894C193.316 54.7482 193.594 54.9269 194.07 55.1254C194.546 55.324 195.061 55.4828 195.617 55.6019C196.172 55.721 196.569 55.7806 196.807 55.7806C196.926 55.7806 197.005 56.0188 197.045 56.4953C197.084 56.9718 197.065 57.3093 196.985 57.5078L190.618 57.21L184.132 57.5078Z" fill="black"/>
<path d="M199.068 57.5078C198.909 57.349 198.83 57.0115 198.83 56.4953C198.83 56.0188 198.909 55.7806 199.068 55.7806C199.385 55.7806 199.822 55.721 200.377 55.6019C200.932 55.4828 201.448 55.324 201.924 55.1254C202.4 54.9269 202.658 54.7482 202.698 54.5894C202.856 54.0335 202.955 53.3982 202.995 52.6835C203.074 51.9688 203.114 51.2144 203.114 50.4203V24.6312C203.114 23.2812 202.995 22.0106 202.757 20.8195C202.598 20.1842 201.587 19.8665 199.722 19.8665H199.187C198.949 19.8665 198.83 19.6481 198.83 19.2114C198.83 18.5761 198.949 18.2584 199.187 18.2584C201.567 17.9805 203.332 17.6628 204.483 17.3055C205.633 16.9481 206.426 16.6305 206.863 16.3525L207.458 15.9952H207.577C207.736 15.9952 207.894 16.1143 208.053 16.3525C208.212 16.5511 208.311 16.7496 208.35 16.9481C207.914 18.2584 207.696 19.9856 207.696 22.1297V49.2887C207.696 50.4401 207.736 51.4526 207.815 52.3262C207.894 53.1997 208.013 53.9541 208.172 54.5894C208.251 54.7482 208.529 54.9269 209.005 55.1254C209.481 55.324 209.997 55.4828 210.552 55.6019C211.107 55.721 211.504 55.7806 211.742 55.7806C211.861 55.7806 211.941 56.0188 211.98 56.4953C212.02 56.9718 212 57.3093 211.921 57.5078L205.554 57.21L199.068 57.5078Z" fill="black"/>
<path d="M4.2043 57.6341C2.66069 57.6341 1.56392 56.8209 0.913978 55.1945C0.304659 53.5682 0 50.966 0 47.388C0 42.1023 0.751493 37.081 2.25448 32.3239C2.62007 31.1448 3.20908 30.2909 4.0215 29.7624C4.87455 29.1931 6.05256 28.9085 7.55555 28.9085C8.36798 28.9085 8.93667 29.0102 9.26164 29.2135C9.58661 29.4168 9.7491 29.803 9.7491 30.3722C9.7491 31.0228 9.44444 32.4865 8.83512 34.7634C8.42891 36.3898 8.10394 37.8128 7.86021 39.0326C7.61648 40.2117 7.41338 41.6958 7.25089 43.4848C8.34766 40.3134 9.64754 37.6299 11.1505 35.4343C12.6941 33.2387 14.2581 31.6123 15.8423 30.5552C17.4671 29.4574 18.9904 28.9085 20.4122 28.9085C21.8339 28.9085 22.8291 29.2338 23.3978 29.8843C24.0072 30.5349 24.3118 31.531 24.3118 32.8728C24.3118 34.1739 23.9259 36.5321 23.1541 39.9474C22.8291 41.4111 22.6057 42.5089 22.4839 43.2408C24.5149 38.2397 26.7694 34.6008 29.2473 32.3239C31.7252 30.047 34.0406 28.9085 36.1935 28.9085C38.8339 28.9085 40.1541 30.2299 40.1541 32.8728C40.1541 34.4585 39.7073 37.3249 38.8136 41.4721C38.0418 45.0095 37.6559 47.3474 37.6559 48.4858C37.6559 50.1122 38.2449 50.9253 39.4229 50.9253C40.2353 50.9253 41.1899 50.4374 42.2867 49.4616C43.4241 48.4451 44.9271 46.8188 46.7957 44.5825C47.2831 44.0133 47.8315 43.7287 48.4408 43.7287C48.9689 43.7287 49.3751 43.9727 49.6595 44.4606C49.9844 44.9485 50.1469 45.6194 50.1469 46.4732C50.1469 48.0995 49.761 49.36 48.9892 50.2545C47.2425 52.4094 45.3536 54.1781 43.3225 55.5605C41.3321 56.9429 39.0573 57.6341 36.4982 57.6341C34.4265 57.6341 32.8626 57.0445 31.8064 55.8654C30.7503 54.6456 30.2222 52.8973 30.2222 50.6204C30.2222 49.4819 30.5065 47.449 31.0752 44.5216C31.6033 41.96 31.8674 40.1914 31.8674 39.2156C31.8674 38.565 31.6439 38.2397 31.1971 38.2397C30.669 38.2397 29.9175 38.931 28.9426 40.3134C27.9677 41.6551 26.9928 43.4441 26.0179 45.6803C25.043 47.9166 24.2509 50.2748 23.6416 52.755C23.1947 54.7066 22.6667 56.0077 22.0573 56.6583C21.4886 57.3088 20.5543 57.6341 19.2545 57.6341C17.914 57.6341 16.8984 57.0039 16.2079 55.7434C15.5579 54.4423 15.233 52.877 15.233 51.0473C15.233 49.5023 15.4361 47.266 15.8423 44.3386C16.1673 41.7364 16.3297 40.0287 16.3297 39.2156C16.3297 38.565 16.1063 38.2397 15.6595 38.2397C15.0502 38.2397 14.2784 38.9716 13.3441 40.4353C12.4098 41.8991 11.4958 43.7694 10.6021 46.0463C9.7491 48.3232 9.05854 50.5594 8.53046 52.755C8.08363 54.666 7.55555 55.9671 6.94623 56.6583C6.37753 57.3088 5.46356 57.6341 4.2043 57.6341Z" fill="black"/>
<path d="M53.2021 24.8833C51.496 24.8833 50.2164 24.497 49.3634 23.7245C48.5103 22.9113 48.0838 21.7932 48.0838 20.3701C48.0838 18.9471 48.6322 17.768 49.729 16.8328C50.8664 15.857 52.2678 15.3691 53.9333 15.3691C55.4362 15.3691 56.6549 15.735 57.5892 16.4669C58.5235 17.1987 58.9906 18.2355 58.9906 19.5773C58.9906 21.2036 58.4625 22.5047 57.4064 23.4805C56.3502 24.4157 54.9488 24.8833 53.2021 24.8833ZM52.7146 57.6341C50.0742 57.6341 48.1447 56.6989 46.9261 54.8286C45.7481 52.9583 45.1591 50.4781 45.1591 47.388C45.1591 45.5584 45.3825 43.2205 45.8293 40.3743C46.3168 37.4876 46.9261 34.8041 47.6573 32.3239C48.0229 31.0228 48.5103 30.1283 49.1196 29.6404C49.729 29.1525 50.7039 28.9085 52.0444 28.9085C54.1161 28.9085 55.1519 29.5997 55.1519 30.9821C55.1519 31.9986 54.766 34.3568 53.9942 38.0568C53.0193 42.5293 52.5318 45.5584 52.5318 47.1441C52.5318 48.3638 52.6943 49.299 53.0193 49.9495C53.3443 50.6001 53.8926 50.9253 54.6644 50.9253C55.3956 50.9253 56.3096 50.4171 57.4064 49.4006C58.5031 48.3842 59.9655 46.7781 61.7935 44.5825C62.2809 44.0133 62.8293 43.7287 63.4386 43.7287C63.9667 43.7287 64.3729 43.9727 64.6573 44.4606C64.9822 44.9485 65.1447 45.6194 65.1447 46.4732C65.1447 48.0995 64.7588 49.36 63.987 50.2545C59.9655 55.1742 56.208 57.6341 52.7146 57.6341Z" fill="black"/>
<path d="M64.5411 57.6341C62.9975 57.6341 61.9007 56.8209 61.2508 55.1945C60.6415 53.5682 60.3368 50.966 60.3368 47.388C60.3368 42.1023 61.0883 37.081 62.5913 32.3239C62.9569 31.1448 63.5459 30.2909 64.3583 29.7624C65.2114 29.1931 66.3894 28.9085 67.8924 28.9085C68.7048 28.9085 69.2735 29.0102 69.5985 29.2135C69.9234 29.4168 70.0859 29.803 70.0859 30.3722C70.0859 31.0228 69.7813 32.4865 69.1719 34.7634C68.7657 36.3898 68.4408 37.8128 68.197 39.0326C67.9533 40.2524 67.7502 41.7567 67.5877 43.5457C68.9282 40.0491 70.4312 37.2029 72.0967 35.0074C73.7621 32.8118 75.387 31.2464 76.9712 30.3113C78.5961 29.3761 80.0787 28.9085 81.4192 28.9085C84.0596 28.9085 85.3798 30.2299 85.3798 32.8728C85.3798 34.4585 84.933 37.3249 84.0393 41.4721C83.2675 45.0095 82.8816 47.3474 82.8816 48.4858C82.8816 50.1122 83.4706 50.9253 84.6486 50.9253C85.461 50.9253 86.4157 50.4374 87.5124 49.4616C88.6498 48.4451 90.1528 46.8188 92.0214 44.5825C92.5088 44.0133 93.0572 43.7287 93.6665 43.7287C94.1946 43.7287 94.6008 43.9727 94.8852 44.4606C95.2102 44.9485 95.3726 45.6194 95.3726 46.4732C95.3726 48.0995 94.9867 49.36 94.2149 50.2545C92.4682 52.4094 90.5793 54.1781 88.5483 55.5605C86.5578 56.9429 84.283 57.6341 81.7239 57.6341C79.6522 57.6341 78.0883 57.0445 77.0321 55.8654C75.976 54.6456 75.4479 52.8973 75.4479 50.6204C75.4479 49.4819 75.7323 47.449 76.301 44.5216C76.829 41.96 77.0931 40.1914 77.0931 39.2156C77.0931 38.565 76.8697 38.2397 76.4228 38.2397C75.8948 38.2397 75.1433 38.931 74.1683 40.3134C73.2341 41.6551 72.2591 43.4441 71.2436 45.6803C70.2687 47.9166 69.4766 50.2748 68.8673 52.755C68.4204 54.666 67.8924 55.9671 67.2831 56.6583C66.7144 57.3088 65.8004 57.6341 64.5411 57.6341Z" fill="black"/>
<path d="M112.622 43.7287C113.069 47.0627 113.719 50.3561 114.572 53.6088C114.734 54.1374 114.816 54.6863 114.816 55.2555C114.816 57.0852 113.699 58 111.464 58C110.205 58 109.23 57.6544 108.54 56.9632C107.89 56.272 107.28 54.9709 106.712 53.0599L106.651 52.816C105.107 54.727 103.706 56.0077 102.446 56.6583C101.228 57.3088 99.8061 57.6341 98.1812 57.6341C95.7033 57.6341 93.6519 56.7192 92.0271 54.8896C90.4429 53.0193 89.6507 50.6001 89.6507 47.632C89.6507 44.3792 90.3413 41.3705 91.7224 38.6057C93.1036 35.8409 94.9924 33.5843 97.3891 31.836C99.7858 30.047 102.467 28.9695 105.432 28.6036C106.204 20.919 107.666 14.2306 109.819 8.53838C112.013 2.84613 114.917 0 118.532 0C120.279 0 121.721 0.79285 122.859 2.37855C124.037 3.96425 124.626 6.36313 124.626 9.57518C124.626 14.0477 123.529 19.2723 121.335 25.2492C119.142 31.2261 116.237 37.3859 112.622 43.7287ZM117.862 5.97687C116.684 5.97687 115.567 8.98563 114.511 15.0032C113.495 21.0207 112.805 27.5668 112.439 34.6414C116.948 24.8833 119.203 16.9548 119.203 10.8559C119.203 9.3109 119.061 8.11146 118.776 7.25762C118.532 6.40379 118.228 5.97687 117.862 5.97687ZM100.314 51.4742C101.126 51.4742 101.898 51.1693 102.629 50.5594C103.401 49.9495 104.376 48.7704 105.554 47.0221C105.148 44.054 104.945 40.9842 104.945 37.8128C104.945 36.5524 104.965 35.5766 105.006 34.8854C102.771 35.5359 100.923 37.02 99.4608 39.3375C97.9984 41.6551 97.2672 44.2166 97.2672 47.0221C97.2672 49.9902 98.2828 51.4742 100.314 51.4742Z" fill="black"/>
</svg>
