<svg width="427" height="332" viewBox="0 0 427 332" fill="none" xmlns="http://www.w3.org/2000/svg">
<path d="M135.513 1.06998C135.801 1.12066 136.088 1.17135 136.384 1.22356C148.343 3.4023 159.61 7.60628 170.584 12.7481C171.196 13.0344 171.809 13.3172 172.423 13.5988C185.697 19.7106 198.344 27.7419 210.048 36.4561C210.27 36.6209 210.492 36.7858 210.72 36.9556C211.16 37.2826 211.599 37.6107 212.036 37.94C212.235 38.088 212.434 38.2359 212.638 38.3883C212.816 38.5217 212.994 38.655 213.177 38.7925C213.606 39.1259 213.606 39.1259 214.134 39.0798C214.488 38.6331 214.825 38.173 215.155 37.7087C217.456 34.5997 220.346 31.7728 223.412 29.4159C224.018 28.9322 224.59 28.429 225.165 27.9093C226.333 26.8657 227.553 25.9168 228.811 24.9856C229.033 24.8207 229.255 24.6559 229.483 24.486C234.79 20.5559 240.262 17.0243 246.042 13.825C246.341 13.6583 246.341 13.6583 246.647 13.4883C268.741 1.29034 295.514 -2.53937 322.7 2.57056C331.227 5.03676 338.695 9.2174 345.083 15.3556C345.237 15.502 345.39 15.6485 345.549 15.7994C347.734 17.8947 349.721 20.0197 351.465 22.4984C351.618 22.713 351.618 22.713 351.774 22.9319C360.108 34.6924 363.405 48.9087 363.303 63.1549C363.301 63.5967 363.301 63.5967 363.299 64.0475C363.28 68.4425 363.125 72.7416 362.441 77.0897C362.397 77.3889 362.354 77.6881 362.309 77.9964C360.693 88.9993 357.648 99.5841 353.3 109.806C353.096 110.288 352.893 110.769 352.69 111.251C352.201 112.412 351.71 113.572 351.218 114.732C350.606 116.177 349.998 117.623 349.391 119.07C349.235 119.437 349.235 119.437 349.076 119.813C348.939 120.14 348.939 120.14 348.799 120.474C348.682 120.75 348.682 120.75 348.563 121.031C348.373 121.478 348.373 121.478 348.402 121.987C348.716 122.004 348.716 122.004 349.037 122.021C351.051 122.128 353.066 122.236 355.081 122.347C356.116 122.403 357.15 122.459 358.185 122.514C364.974 122.873 371.789 123.251 378.507 124.347C378.839 124.4 379.17 124.454 379.512 124.509C394.526 126.974 408.976 131.127 418.261 143.952C419.402 145.587 420.418 147.299 421.407 149.028C421.502 149.194 421.598 149.361 421.696 149.533C428.516 161.669 427.986 176.13 424.438 189.158C423.021 194.135 421.371 199.374 418.344 203.619C418.054 204.03 418.054 204.03 417.759 204.448C414.436 209.016 410.227 212.887 405.753 216.3C405.357 216.605 404.967 216.916 404.577 217.228C400.266 220.651 395.54 223.577 390.775 226.323C390.501 226.481 390.501 226.481 390.221 226.643C388.885 227.408 387.537 228.146 386.181 228.874C385.935 229.006 385.69 229.138 385.437 229.274C379.229 232.596 372.88 235.476 366.318 238.026C366.114 238.105 365.91 238.185 365.699 238.266C365.123 238.49 364.545 238.712 363.968 238.932C363.795 238.999 363.621 239.066 363.443 239.135C362.246 239.588 362.246 239.588 361.675 239.588C361.679 240.006 361.679 240.006 361.682 240.432C361.696 243.206 361.64 245.969 361.5 248.74C361.484 249.053 361.484 249.053 361.468 249.373C360.295 271.795 356.443 297.616 337.11 316.227C336.054 317.168 334.97 318.059 333.852 318.924C333.707 319.037 333.563 319.151 333.414 319.267C329.498 322.327 325.365 325.028 320.834 327.087C320.647 327.173 320.46 327.258 320.268 327.346C314.204 330.088 307.606 331.948 300.913 331.986C300.593 331.989 300.593 331.989 300.267 331.992C295.755 332.021 291.331 332.02 286.884 331.169C286.616 331.121 286.349 331.073 286.073 331.024C276.498 329.282 267.382 325.958 259.826 319.689C259.678 319.568 259.531 319.446 259.379 319.321C256.043 316.555 252.956 313.532 250.126 310.251C249.859 309.947 249.592 309.643 249.324 309.34C247.602 307.377 245.939 305.381 244.351 303.307C243.996 302.849 243.634 302.397 243.27 301.946C235.39 292.027 231.593 278.959 228.397 266.868C228.321 266.586 228.246 266.304 228.168 266.013C227.262 262.477 227.262 262.477 228.173 260.761C228.72 260.489 228.72 260.489 229.404 260.327C229.786 260.23 229.786 260.23 230.176 260.131C230.59 260.033 230.59 260.033 231.013 259.932C243.744 256.639 253.735 249.582 263.232 240.744C263.71 240.302 264.191 239.865 264.672 239.427C268.292 236.111 271.925 232.575 272.164 227.355C272.228 223.603 271.69 220.79 269.526 217.65C269.422 217.493 269.319 217.337 269.213 217.175C267.302 214.622 263.918 213.032 260.847 212.548C258.404 212.316 256.005 212.409 253.7 213.313C253.457 213.407 253.214 213.5 252.965 213.597C250.001 214.906 247.924 217.293 245.682 219.551C245.495 219.739 245.309 219.927 245.116 220.121C244.93 220.309 244.744 220.496 244.553 220.69C243.369 221.876 242.17 222.97 240.849 224.002C240.351 224.395 239.873 224.791 239.397 225.208C233.131 230.69 226.075 233.388 217.963 234.996C217.637 235.062 217.312 235.129 216.977 235.197C208.842 236.612 198.72 233.784 191.968 229.191C190.804 228.366 189.7 227.495 188.608 226.578C188.223 226.258 188.223 226.258 187.83 225.931C185.731 224.168 183.751 222.315 181.82 220.371C181.354 219.903 180.886 219.438 180.417 218.973C180.119 218.675 179.822 218.377 179.524 218.078C179.384 217.94 179.245 217.801 179.101 217.659C178.142 216.688 178.142 216.688 178.142 216.119C177.921 216.015 177.921 216.015 177.695 215.909C177.122 215.609 176.625 215.268 176.1 214.891C172.772 212.645 169.194 212.134 165.278 212.665C161.745 213.452 158.761 215.5 156.732 218.495C154.593 222.088 154.199 225.979 155.145 230.001C156.058 233 157.857 235.123 160.018 237.292C160.31 237.589 160.31 237.589 160.608 237.892C161.088 238.377 161.573 238.855 162.06 239.333C162.797 240.066 163.528 240.803 164.256 241.545C165.954 243.269 167.636 244.949 169.543 246.443C170.177 246.945 170.787 247.468 171.397 248C173.361 249.705 175.45 251.184 177.631 252.598C177.789 252.7 177.946 252.802 178.108 252.907C184.217 256.819 191.039 259.213 198.067 260.884C198.563 261.017 198.563 261.017 199.073 261.272C199.611 263.485 198.939 265.47 198.339 267.601C198.234 267.987 198.128 268.374 198.023 268.76C197.038 272.337 195.919 275.868 194.734 279.384C194.586 279.831 194.439 280.279 194.291 280.727C190.956 290.699 186.136 299.249 179.297 307.2C178.669 307.935 178.061 308.684 177.456 309.438C176.64 310.44 175.791 311.366 174.853 312.255C174.37 312.744 173.924 313.247 173.475 313.768C169.553 318.277 164.69 321.865 159.508 324.791C159.262 324.931 159.262 324.931 159.011 325.073C151.097 329.481 140.968 331.935 131.911 331.986C131.59 331.989 131.59 331.989 131.261 331.991C130.572 331.996 129.884 331.998 129.195 331.998C128.96 331.998 128.725 331.998 128.483 331.999C125.07 331.995 121.755 331.909 118.411 331.169C118.204 331.125 117.997 331.081 117.784 331.036C107.12 328.734 97.8852 323.365 89.8211 316.118C89.6852 315.997 89.5492 315.875 89.4092 315.75C88.4255 314.868 87.4592 313.969 86.5027 313.057C86.347 312.909 86.1912 312.76 86.0307 312.607C69.7568 297 66.5338 270.337 65.3046 245.709C65.2711 243.668 65.2809 241.628 65.3159 239.588C65.1469 239.562 64.9778 239.535 64.8036 239.508C63.8407 239.288 62.9431 238.94 62.0265 238.579C61.831 238.503 61.6355 238.426 61.4341 238.348C60.797 238.098 60.1607 237.847 59.5247 237.595C59.3067 237.509 59.0887 237.423 58.8641 237.334C55.078 235.835 51.3657 234.228 47.7028 232.445C47.2928 232.247 47.2928 232.247 46.8744 232.045C35.2119 226.392 23.9096 219.513 14.5188 210.507C14.2904 210.289 14.062 210.071 13.8268 209.847C11.7682 207.841 9.985 205.668 8.36055 203.3C8.21371 203.091 8.21371 203.091 8.06391 202.878C6.0547 199.872 4.8794 196.411 3.76583 193.001C3.69957 192.8 3.6333 192.599 3.56503 192.392C-1.0589 178.342 -1.76954 163.493 4.95047 149.958C8.06577 143.916 12.9627 137.299 18.8582 133.722C19.1359 133.548 19.4136 133.374 19.6998 133.195C27.8149 128.276 37.5937 126.252 46.8254 124.618C47.0962 124.569 47.3669 124.521 47.6459 124.471C53.44 123.485 59.2848 123.082 65.1452 122.752C66.0724 122.699 66.9994 122.645 67.9264 122.59C71.4804 122.382 75.0348 122.181 78.5896 121.987C78.4318 121.059 78.1758 120.259 77.8029 119.396C77.6928 119.139 77.5826 118.882 77.4692 118.617C77.3493 118.341 77.2294 118.065 77.1059 117.78C76.9814 117.49 76.8569 117.2 76.7286 116.901C76.329 115.971 75.9279 115.041 75.5264 114.111C70.5826 102.652 70.5826 102.652 69.1289 98.0238C69.0477 97.7668 68.9665 97.5097 68.8828 97.2449C63.1244 78.5868 61.0583 57.9148 67.1028 39.0798C67.2043 38.7624 67.2043 38.7624 67.3078 38.4385C69.0402 33.1468 71.5321 28.0559 74.7607 23.5188C74.8623 23.3746 74.9639 23.2305 75.0686 23.082C76.2215 21.4599 77.4685 19.9513 78.8189 18.4905C79.2903 17.9774 79.7382 17.4525 80.185 16.918C83.9919 12.5947 88.8008 9.28446 93.9053 6.68217C94.074 6.59359 94.2427 6.50501 94.4165 6.41375C99.5732 3.71923 105.292 2.06205 111.008 1.06998C111.235 1.02859 111.463 0.987196 111.697 0.944549C119.331 -0.388987 127.891 -0.277285 135.513 1.06998Z" fill="url(#paint0_linear_6_155)"/>
<defs>
<linearGradient id="paint0_linear_6_155" x1="17.9909" y1="165.852" x2="413.29" y2="165.852" gradientUnits="userSpaceOnUse">
<stop stop-color="#F29F9F"/>
<stop offset="1" stop-color="#FF80B3"/>
</linearGradient>
</defs>
</svg>
